<svg width="16" height="18" viewBox="0 0 16 18" fill="none" xmlns="http://www.w3.org/2000/svg">
<path d="M12.5903 9.46972C12.5823 8.00146 13.2464 6.89325 14.5907 6.07711C13.8385 5.00091 12.7023 4.4088 11.202 4.29278C9.78178 4.18076 8.2295 5.12093 7.66139 5.12093C7.06128 5.12093 5.68503 4.33279 4.60484 4.33279C2.37243 4.36879 0 6.11311 0 9.66176C0 10.7099 0.192035 11.7928 0.576105 12.9103C1.0882 14.3786 2.93653 17.9793 4.86488 17.9193C5.87307 17.8953 6.5852 17.2031 7.89744 17.2031C9.16967 17.2031 9.82979 17.9193 10.954 17.9193C12.8983 17.8913 14.5707 14.6187 15.0587 13.1464C12.4503 11.9182 12.5903 9.54574 12.5903 9.46972ZM10.3259 2.90053C11.4181 1.60429 11.3181 0.424077 11.2861 0C10.3219 0.0560102 9.20567 0.656119 8.56956 1.39625C7.86943 2.1884 7.45736 3.16858 7.54537 4.27278C8.58956 4.35279 9.54174 3.81669 10.3259 2.90053Z" fill="white"/>
</svg>
