<svg width="175" height="175" viewBox="0 0 175 175" fill="none" xmlns="http://www.w3.org/2000/svg">
<path d="M87.4411 61.2704C85.9823 61.2704 84.8154 60.3952 84.5238 58.9363C82.1897 46.0993 75.7713 25.6771 67.0189 26.2607C65.5601 26.2607 64.1015 25.0938 63.8096 23.635C63.8096 21.8845 64.9764 20.7176 66.4353 20.4256C82.7733 19.2588 89.1916 53.9765 89.7752 57.7694C90.0669 59.2283 88.9 60.9788 87.4411 61.2704C87.7328 61.2704 87.7328 61.2704 87.4411 61.2704Z" fill="#FFE100"/>
<path d="M93.2762 61.2704C92.9845 61.2704 92.9845 61.2704 92.6925 61.2704C91.2337 60.9788 90.0668 59.5199 90.3585 57.7694C90.9421 53.6849 97.3604 19.2588 113.698 20.4256C115.449 20.4256 116.616 21.8845 116.324 23.635C116.324 25.3855 114.865 26.5523 113.115 26.2607C104.654 25.6771 97.944 46.0996 95.6099 58.9363C95.9019 60.3952 94.7347 61.2704 93.2762 61.2704Z" fill="#FFE100"/>
<path d="M12.4619 11.9652C56.224 16.925 75.771 70.0228 75.771 70.0228V93.3628H26.1741C7.2104 93.3628 8.66925 75.8579 8.66925 75.8579V35.0131C3.12616 29.47 2.54255 23.3433 3.12616 18.9671C3.70977 14.5909 8.08564 11.6732 12.4619 11.9652Z" fill="#FFE100"/>
<path d="M75.7713 93.3628L34.9266 102.115C34.9266 102.115 15.0876 107.95 34.9266 128.372L29.0915 151.712C29.0915 151.712 27.341 159.298 34.9266 162.215C39.5944 163.965 44.8459 162.799 48.6388 159.589C53.3067 155.797 60.017 149.378 64.6848 139.75C66.7269 135.666 75.7713 113.785 75.7713 113.785V93.3628Z" fill="#FFE100"/>
<path d="M162.42 11.9652C118.95 16.9247 99.1108 70.0228 99.1108 70.0228V93.3628H148.708C167.672 93.3628 166.213 75.8579 166.213 75.8579V35.0131C171.756 29.47 172.34 23.3433 171.756 18.9671C171.173 14.5909 166.796 11.6732 162.42 11.9652Z" fill="#FFE100"/>
<path d="M166.213 34.7215C171.756 29.1784 172.34 23.0517 171.756 18.6755C171.172 14.2993 166.796 11.3819 162.42 11.9652C160.961 12.2568 159.503 12.2568 158.044 12.5488C160.67 13.7157 162.42 15.7581 163.004 18.6755C163.879 23.0517 163.295 29.1784 157.461 34.7215V75.5663C157.461 75.5663 158.919 93.0711 139.956 93.0711H148.708C167.672 93.0711 166.213 75.5663 166.213 75.5663V34.7215Z" fill="#FFA800"/>
<path d="M99.111 93.3627L139.956 102.115C139.956 102.115 159.795 107.95 139.956 128.372L145.791 151.712C145.791 151.712 147.541 159.298 139.956 162.215C135.288 163.966 130.036 162.799 126.243 159.59C121.576 155.797 114.865 149.378 110.197 139.751C108.155 135.666 99.111 113.785 99.111 113.785V93.3627Z" fill="#FFE100"/>
<path d="M139.956 128.664C159.795 108.242 139.956 102.407 139.956 102.407L99.111 93.6544V95.4049L131.203 102.407C131.203 102.407 151.042 108.242 131.203 128.664L137.038 152.004C137.038 152.004 138.789 159.59 131.203 162.507C131.203 162.507 131.203 162.507 130.912 162.507C133.829 163.382 137.038 163.674 139.956 162.507C147.541 159.59 145.791 152.004 145.791 152.004L139.956 128.664Z" fill="#FFA800"/>
<path d="M8.66932 34.7215C2.83425 29.1781 2.25099 23.0514 3.12623 18.6751C3.70984 14.2989 8.08605 11.0896 12.4623 11.6732C13.9211 11.9648 15.3796 11.9648 16.8385 12.2568C14.2128 13.4237 12.1706 15.7578 11.8787 18.6751C11.0034 23.0514 11.587 29.1781 17.4217 34.7211V75.5659C17.4217 75.5659 15.9629 93.0708 34.9266 93.0708H26.1742C7.21047 93.0708 8.66932 75.5659 8.66932 75.5659V34.7215V34.7215Z" fill="white"/>
<path d="M34.9266 128.664C15.0876 108.242 34.9266 102.407 34.9266 102.407L75.7713 93.6544V95.4049L43.679 102.407C43.679 102.407 23.84 108.242 43.679 128.664L37.8439 152.004C37.8439 152.004 36.0934 159.59 43.679 162.507C43.679 162.507 43.679 162.507 43.9706 162.507C41.0533 163.382 37.8439 163.674 34.9266 162.507C27.341 159.59 29.0915 152.004 29.0915 152.004L34.9266 128.664Z" fill="white"/>
<path d="M99.1109 93.3628C99.1109 112.618 93.8595 128.372 87.4412 128.372C81.0228 128.372 75.7714 112.618 75.7714 93.3628C75.7714 74.1074 81.0228 58.3531 87.4412 58.3531C93.8595 58.3531 99.1109 74.1074 99.1109 93.3628Z" fill="#FFE100"/>
<path d="M75.7714 96.2801H26.1742C19.4639 96.2801 14.2124 94.238 10.7114 90.4451C5.16834 84.3184 5.75161 75.8576 5.75161 75.5659V36.18C-0.0831169 29.7617 -0.37475 23.0514 0.208517 18.3835C1.08376 12.5485 6.62685 8.46421 12.7535 9.04748C57.6826 14.2989 77.8131 66.8135 78.3967 68.8556C78.3967 69.1473 78.6884 69.4392 78.6884 69.7309V93.0708C78.6887 95.1133 77.5218 96.2801 75.7714 96.2801ZM11.295 14.8825C8.66931 14.8825 6.33522 16.633 6.04358 19.2588C5.16834 24.5102 6.91882 28.8864 10.7114 32.971C11.295 33.5546 11.5867 34.1379 11.5867 35.0131V75.8579C11.5867 76.1495 11.295 82.2762 15.0876 86.3608C17.4217 88.9866 21.2143 90.4454 26.1742 90.4454H72.8537V70.6065C70.8115 65.355 51.2642 19.5507 12.1703 14.8825C11.8786 14.8825 11.5867 14.8825 11.295 14.8825Z" fill="black"/>
<path d="M39.5944 166.008C37.5523 166.008 35.8018 165.716 34.0513 165.133C26.1742 162.215 25.5906 154.63 26.4658 151.129L32.0089 129.248C25.0069 121.954 22.3812 115.244 23.8401 109.409C25.8822 101.823 34.0513 99.4894 34.343 99.1975L75.4794 90.445C76.3546 90.1534 77.2299 90.445 77.8135 91.0287C78.3971 91.6123 78.9804 92.4875 78.9804 93.3627V113.785C78.9804 114.077 78.9804 114.66 78.6887 114.952C78.3971 115.827 69.6447 136.833 67.6022 141.209C62.9344 151.128 55.9324 158.13 50.9726 162.215C47.4716 164.549 43.3874 166.008 39.5944 166.008ZM35.5102 105.033C35.5102 105.033 30.2587 106.783 29.0919 110.868C28.2166 114.66 30.8423 120.204 36.969 126.33C37.5527 126.914 37.8443 128.081 37.8443 128.956L32.0092 152.296C31.7176 153.171 31.134 157.547 36.0938 159.589C39.5948 161.048 43.971 160.173 47.1803 157.547C51.5565 154.046 57.9749 147.628 62.3511 138.583C64.1016 134.791 71.6871 116.702 73.1456 113.201V96.8634L35.5102 105.033Z" fill="black"/>
<path d="M148.708 96.2801H99.111C97.3605 96.2801 96.1936 95.1132 96.1936 93.3628V70.0228C96.1936 69.7312 96.1936 69.4392 96.4852 69.1476C97.3605 66.8135 117.199 14.2989 162.128 9.33946C168.255 8.75585 173.798 12.8404 174.673 18.6755C175.549 23.0517 174.965 29.762 169.13 36.1803V75.8579C169.13 75.8579 169.714 84.3187 164.171 90.4454C160.67 94.238 155.418 96.2801 148.708 96.2801ZM102.029 90.445H148.708C153.668 90.445 157.461 88.9862 159.795 86.3605C163.587 82.2759 163.296 76.1492 163.296 75.8576V35.0131C163.296 34.1379 163.587 33.5543 164.171 32.971C168.255 28.8864 169.714 24.5102 168.839 19.2588C168.255 16.633 165.921 14.5909 162.712 14.8825C123.618 19.5504 104.071 65.355 102.029 70.6064V90.445Z" fill="black"/>
<path d="M135.288 166.008C131.203 166.008 127.411 164.549 124.201 161.923C119.242 157.839 112.24 151.129 107.572 140.917C105.53 136.833 96.7772 115.535 96.4852 114.66C96.1936 114.66 96.1936 114.077 96.1936 113.785V93.3627C96.1936 92.4875 96.4852 91.6123 97.3605 91.0287C97.9441 90.445 98.8193 90.1534 99.6946 90.445L140.539 99.1975C141.123 99.4891 149.292 101.823 151.334 109.409C152.793 115.244 150.167 121.662 143.165 129.248L148.708 151.129C149.583 154.63 149 162.215 141.123 165.133C139.08 165.716 137.33 166.008 135.288 166.008ZM102.029 113.201C103.488 116.702 111.073 134.791 112.823 138.583C117.199 147.627 123.326 153.754 127.994 157.547C131.203 160.173 135.58 161.048 139.08 159.589C144.04 157.839 143.457 153.171 143.165 152.296L137.33 128.956C137.038 128.08 137.33 126.914 138.205 126.33C144.332 120.203 146.958 114.66 146.082 110.867C144.916 106.491 139.664 105.032 139.664 105.032L102.029 96.8634V113.201Z" fill="black"/>
<path d="M87.4411 131.29C77.8135 131.29 72.8536 112.326 72.8536 93.3628C72.8536 74.3994 77.8135 55.4357 87.4411 55.4357C97.0688 55.4357 102.029 74.3994 102.029 93.3628C102.029 112.326 97.0688 131.29 87.4411 131.29ZM87.4411 61.2704C84.5238 61.2704 78.6887 72.6486 78.6887 93.3628C78.6887 114.077 84.5238 125.455 87.4411 125.455C90.3585 125.455 96.1936 114.077 96.1936 93.3628C96.1936 72.6486 90.3585 61.2704 87.4411 61.2704Z" fill="black"/>
<path d="M84.5238 61.2704C83.0649 61.2704 81.898 60.3952 81.6064 58.9363C79.2723 46.0993 72.854 25.6771 64.1015 26.2607C62.6427 26.2607 61.1842 25.0938 60.8922 23.635C60.8922 21.8845 62.0591 20.7176 63.5179 20.4256C79.8559 19.2588 86.2742 53.9765 86.8579 57.7694C87.1495 59.2283 85.9823 60.9788 84.5238 61.2704C84.8154 61.2704 84.8154 61.2704 84.5238 61.2704Z" fill="black"/>
<path d="M90.3586 61.2704C90.0669 61.2704 90.0669 61.2704 89.7749 61.2704C88.3161 60.9788 87.1492 59.5199 87.4409 57.7694C88.0245 53.6849 94.4428 19.2588 110.781 20.4256C112.531 20.4256 113.698 21.8845 113.407 23.635C113.407 25.3855 111.948 26.5523 110.197 26.2607C101.736 25.6771 95.0264 46.0996 92.6923 58.9363C92.9843 60.3952 91.8174 61.2704 90.3586 61.2704Z" fill="black"/>
<path d="M37.844 84.6103C26.4658 84.6103 17.4218 75.5663 17.4218 64.1881C17.4218 62.4376 18.5886 61.2708 20.3391 61.2708C22.0896 61.2708 23.2565 62.4376 23.2565 64.1881C23.2565 72.3569 29.6748 78.7756 37.844 78.7756C39.5945 78.7756 40.7613 79.9425 40.7613 81.693C40.7617 83.4431 39.5945 84.6103 37.844 84.6103Z" fill="black"/>
<path d="M137.038 84.6103C135.288 84.6103 134.121 83.4435 134.121 81.693C134.121 79.9425 135.288 78.7756 137.038 78.7756C145.207 78.7756 151.626 72.3573 151.626 64.1881C151.626 62.4376 152.793 61.2708 154.543 61.2708C156.294 61.2708 157.461 62.4376 157.461 64.1881C157.461 75.5659 148.416 84.6103 137.038 84.6103Z" fill="black"/>
</svg>
