<svg width="175" height="175" viewBox="0 0 175 175" fill="none" xmlns="http://www.w3.org/2000/svg">
<path d="M126.977 153.341C108.937 153.341 94.2594 138.664 94.2594 120.624V72.6458C94.2594 50.3856 112.37 32.2755 134.629 32.2755C156.889 32.2755 175 50.3856 175 72.6458C175 86.4514 167.91 99.1932 156.525 106.557C158.61 110.918 159.693 115.691 159.693 120.624C159.694 138.664 145.017 153.341 126.977 153.341Z" fill="#F3B73F"/>
<path d="M134.63 92.0322C123.94 92.0322 115.243 83.3355 115.243 72.6459C115.243 61.9562 123.94 53.2591 134.63 53.2591C145.319 53.2591 154.016 61.9558 154.016 72.6459C154.016 83.3359 145.319 92.0322 134.63 92.0322Z" fill="#DE5153"/>
<path d="M126.976 135.799C118.609 135.799 111.801 128.991 111.801 120.624C111.801 112.257 118.609 105.449 126.976 105.449C135.344 105.449 142.152 112.257 142.152 120.624C142.151 128.991 135.344 135.799 126.976 135.799Z" fill="#DE5153"/>
<path d="M48.0235 153.341C29.9831 153.341 15.306 138.664 15.306 120.624C15.306 115.691 16.3898 110.918 18.4755 106.557C7.08955 99.1936 0 86.4514 0 72.6458C0 50.3853 18.1101 32.2755 40.3703 32.2755C62.6305 32.2755 80.7406 50.386 80.7406 72.6458V120.624C80.7406 138.664 66.0639 153.341 48.0235 153.341Z" fill="#FFC843"/>
<path d="M83.9197 46.9297L64.0158 29.6929C61.7329 27.7156 61.4848 24.2621 63.4621 21.9789C65.4394 19.6947 68.8929 19.4482 71.1764 21.4249L87.5 35.5616L103.824 21.4252C106.106 19.4472 109.56 19.696 111.538 21.9792C113.515 24.2621 113.267 27.716 110.983 29.6933L91.0796 46.9301C89.0251 48.7098 85.9749 48.7095 83.9197 46.9297Z" fill="#7F5334"/>
<path d="M111.538 21.9792C109.56 19.6957 106.106 19.4476 103.824 21.4252L87.5 35.5616V48.2648C88.7763 48.2648 90.0525 47.8201 91.08 46.9301L110.984 29.6933C113.267 27.716 113.515 24.2618 111.538 21.9792Z" fill="#64503C"/>
<path d="M40.3703 92.0322C29.6806 92.0322 20.9839 83.3355 20.9839 72.6459C20.9839 61.9562 29.6806 53.2591 40.3703 53.2591C51.0604 53.2591 59.757 61.9558 59.757 72.6459C59.757 83.3359 51.0604 92.0322 40.3703 92.0322Z" fill="#FC5B5D"/>
<path d="M48.0235 135.799C39.656 135.799 32.8484 128.991 32.8484 120.624C32.8484 112.257 39.656 105.449 48.0235 105.449C56.391 105.449 63.1986 112.257 63.1986 120.624C63.1986 128.991 56.3907 135.799 48.0235 135.799Z" fill="#FC5B5D"/>
<path d="M87.5 154.91C77.742 154.91 69.8031 146.971 69.8031 137.213V55.0238C69.8031 45.2659 77.742 37.327 87.5 37.327C97.2579 37.327 105.197 45.2659 105.197 55.0238V137.213C105.197 146.971 97.2579 154.91 87.5 154.91Z" fill="#975F39"/>
<path d="M87.5 37.327V154.91C97.258 154.91 105.197 146.971 105.197 137.213V55.0238C105.197 45.2662 97.258 37.327 87.5 37.327Z" fill="#7F5334"/>
</svg>
