<svg width="175" height="175" viewBox="0 0 175 175" fill="none" xmlns="http://www.w3.org/2000/svg">
<g clip-path="url(#clip0_53_936)">
<path d="M154.389 99.0975C155.822 98.4381 157.073 97.7501 158.142 97.0317C175.611 85.2797 180.262 61.5068 168.51 44.0376C162.817 35.5751 154.17 29.8364 144.16 27.8779C134.151 25.9187 123.978 27.976 115.516 33.6693C111.731 36.2156 107.417 41.0288 102.507 48.2051L105.859 24.7416C106.082 23.1772 106.912 21.786 108.194 20.8242C109.476 19.8628 111.044 19.456 112.608 19.6796L116.545 20.2418L118.232 8.43141L114.295 7.86916C104.526 6.47327 95.4437 13.2856 94.0481 23.0544L90.8041 45.7616C89.7326 45.5607 88.6293 45.4509 87.5 45.4509C86.371 45.4509 85.2677 45.5607 84.1959 45.7616L80.9519 23.0541C79.556 13.2852 70.4714 6.47292 60.7049 7.86882L56.7681 8.43107L58.4552 20.2415L62.392 19.6792C65.6466 19.2147 68.6759 21.4846 69.1411 24.7409L72.4928 48.2045C67.5822 41.0281 63.2687 36.2149 59.4837 33.6686C51.0219 27.976 40.8493 25.9194 30.8395 27.8772C20.83 29.8353 12.1823 35.5744 6.49001 44.0369C-5.26195 61.5061 -0.610795 85.279 16.8584 97.031C17.9244 97.7481 19.1727 98.4347 20.6017 99.093C4.99944 111.308 1.24789 133.759 12.4789 150.454C19.8426 161.4 31.923 167.313 44.2181 167.313C51.5451 167.312 58.9502 165.211 65.4733 160.823C70.2479 157.61 75.8642 150.79 82.4588 140.167C84.0588 140.638 85.7493 140.895 87.5 140.895C89.2507 140.895 90.9408 140.638 92.5408 140.167C99.1357 150.79 104.752 157.61 109.527 160.823C116.051 165.212 123.454 167.313 130.782 167.313C143.076 167.312 155.158 161.399 162.521 150.454C168.214 141.992 170.27 131.819 168.312 121.81C166.532 112.713 161.621 104.749 154.389 99.0975ZM19.8932 65.3349C19.8932 55.4673 27.9213 47.4388 37.7892 47.4388C47.6572 47.4388 55.6853 55.4669 55.6853 65.3349C55.6853 75.2029 47.6572 83.231 37.7892 83.231C27.9213 83.231 19.8932 75.2029 19.8932 65.3349ZM43.7546 147.444C33.887 147.444 25.8585 139.416 25.8585 129.548C25.8585 119.68 33.8866 111.652 43.7546 111.652C53.6226 111.652 61.6503 119.68 61.6503 129.548C61.6503 139.416 53.6222 147.444 43.7546 147.444ZM93.4654 123C93.4654 126.289 90.7894 128.965 87.5 128.965C84.2109 128.965 81.5346 126.289 81.5346 123V63.3467C81.5346 60.0576 84.2106 57.3813 87.5 57.3813C90.7894 57.3813 93.4654 60.0572 93.4654 63.3467V123ZM131.246 147.444C121.378 147.444 113.35 139.416 113.35 129.548C113.35 119.68 121.378 111.652 131.246 111.652C141.113 111.652 149.142 119.68 149.142 129.548C149.142 139.416 141.113 147.444 131.246 147.444ZM137.211 83.231C127.344 83.231 119.315 75.2029 119.315 65.3349C119.315 55.4669 127.343 47.4388 137.211 47.4388C147.079 47.4388 155.107 55.4669 155.107 65.3349C155.107 75.2029 147.079 83.231 137.211 83.231Z" fill="#CBE049"/>
<path d="M37.7893 59.3695C34.5002 59.3695 31.8239 62.0455 31.8239 65.3349C31.8239 68.624 34.4998 71.3003 37.7893 71.3003C41.0787 71.3003 43.7546 68.6243 43.7546 65.3349C43.7546 62.0458 41.0784 59.3695 37.7893 59.3695Z" fill="#CBE049"/>
<path d="M43.7546 123.583C40.4652 123.583 37.7892 126.259 37.7892 129.548C37.7892 132.837 40.4652 135.513 43.7546 135.513C47.0437 135.513 49.72 132.837 49.72 129.548C49.72 126.259 47.0437 123.583 43.7546 123.583Z" fill="#CBE049"/>
<path d="M131.246 123.583C127.957 123.583 125.28 126.259 125.28 129.548C125.28 132.837 127.956 135.513 131.246 135.513C134.535 135.513 137.211 132.837 137.211 129.548C137.211 126.259 134.535 123.583 131.246 123.583Z" fill="#CBE049"/>
<path d="M137.211 59.3695C133.922 59.3695 131.246 62.0455 131.246 65.3349C131.246 68.624 133.922 71.3003 137.211 71.3003C140.501 71.3003 143.177 68.6243 143.177 65.3349C143.176 62.0458 140.501 59.3695 137.211 59.3695Z" fill="#CBE049"/>
</g>
<defs>
<clipPath id="clip0_53_936">
<rect width="175" height="175" fill="white"/>
</clipPath>
</defs>
</svg>
