<svg width="228" height="172" viewBox="0 0 228 172" fill="none" xmlns="http://www.w3.org/2000/svg">
<g clip-path="url(#clip0_1752_567)">
<g filter="url(#filter0_d_1752_567)">
<path d="M114.028 73.012C113.856 72.8905 113.626 72.8905 113.453 73.012L36.8569 126.915V45.658C36.8569 37.92 43.1284 31.6485 50.8664 31.6485H176.615C184.353 31.6485 190.625 37.92 190.625 45.658V126.915L114.028 73.012Z" fill="white"/>
<path d="M114.028 73.012C113.856 72.8905 113.626 72.8905 113.453 73.012L36.8569 126.915V45.658C36.8569 37.92 43.1284 31.6485 50.8664 31.6485H176.615C184.353 31.6485 190.625 37.92 190.625 45.658V126.915L114.028 73.012Z" fill="url(#paint0_linear_1752_567)"/>
<path d="M114.028 73.012C113.856 72.8905 113.626 72.8905 113.453 73.012L36.8569 126.915V45.658C36.8569 37.92 43.1284 31.6485 50.8664 31.6485H176.615C184.353 31.6485 190.625 37.92 190.625 45.658V126.915L114.028 73.012Z" stroke="#DBDBDB" stroke-linejoin="round"/>
<path d="M190.779 128.133C190.793 128.151 190.805 128.167 190.814 128.181V128.201C190.813 128.21 190.812 128.218 190.811 128.226C190.807 128.267 190.808 128.303 190.809 128.327C190.809 128.348 190.811 128.37 190.813 128.389C190.814 128.403 190.815 128.415 190.816 128.426C188.75 133.742 183.623 137.522 177.581 137.522H49.8647C49.6624 137.522 49.4604 137.498 49.237 137.466C49.1868 137.458 49.1344 137.45 49.0803 137.442C48.9048 137.415 48.7121 137.386 48.5206 137.367C48.5047 137.366 48.4888 137.365 48.4729 137.365H48.3568C48.3478 137.362 48.3376 137.359 48.3269 137.356C48.2978 137.347 48.2586 137.337 48.2119 137.332L48.2104 137.332C45.235 136.981 42.5613 135.755 40.4417 133.865L40.4408 133.864C40.4256 133.85 40.4107 133.838 40.3966 133.828C40.3779 133.803 40.3567 133.779 40.3333 133.758C40.2359 133.669 40.1398 133.583 40.0452 133.498C39.6169 133.113 39.2203 132.756 38.8781 132.341L38.878 132.341C37.8879 131.141 37.1017 129.787 36.5505 128.332C36.6419 128.215 36.7975 128.045 37.0246 127.82C37.4754 127.372 38.1612 126.752 39.0553 125.981C40.8409 124.442 43.4272 122.324 46.5527 119.822C52.802 114.819 61.1898 108.294 69.5979 101.816C78.0053 95.3384 86.4308 88.9099 92.7545 84.1007C95.9164 81.6961 98.5527 79.6964 100.399 78.2978C101.321 77.5985 102.047 77.0495 102.541 76.6754L103.106 76.2484L103.251 76.1389L103.287 76.1113L103.296 76.1043L103.299 76.1026C103.299 76.1022 103.3 76.102 102.999 75.7041L103.3 76.102L103.3 76.1015C107.468 72.9423 110.563 71.4669 113.611 71.4785C116.662 71.4902 119.782 72.9921 124.001 76.1054L124.009 76.112L124.046 76.1395L124.191 76.2485L124.756 76.6737C125.251 77.0462 125.977 77.5929 126.9 78.2892C128.748 79.6818 131.386 81.673 134.55 84.0676C140.879 88.8566 149.31 95.2584 157.723 101.71C166.136 108.162 174.529 114.661 180.78 119.647C183.906 122.14 186.493 124.251 188.278 125.787C189.172 126.556 189.857 127.174 190.307 127.621C190.533 127.846 190.688 128.016 190.779 128.133Z" fill="white"/>
<path d="M190.779 128.133C190.793 128.151 190.805 128.167 190.814 128.181V128.201C190.813 128.21 190.812 128.218 190.811 128.226C190.807 128.267 190.808 128.303 190.809 128.327C190.809 128.348 190.811 128.37 190.813 128.389C190.814 128.403 190.815 128.415 190.816 128.426C188.75 133.742 183.623 137.522 177.581 137.522H49.8647C49.6624 137.522 49.4604 137.498 49.237 137.466C49.1868 137.458 49.1344 137.45 49.0803 137.442C48.9048 137.415 48.7121 137.386 48.5206 137.367C48.5047 137.366 48.4888 137.365 48.4729 137.365H48.3568C48.3478 137.362 48.3376 137.359 48.3269 137.356C48.2978 137.347 48.2586 137.337 48.2119 137.332L48.2104 137.332C45.235 136.981 42.5613 135.755 40.4417 133.865L40.4408 133.864C40.4256 133.85 40.4107 133.838 40.3966 133.828C40.3779 133.803 40.3567 133.779 40.3333 133.758C40.2359 133.669 40.1398 133.583 40.0452 133.498C39.6169 133.113 39.2203 132.756 38.8781 132.341L38.878 132.341C37.8879 131.141 37.1017 129.787 36.5505 128.332C36.6419 128.215 36.7975 128.045 37.0246 127.82C37.4754 127.372 38.1612 126.752 39.0553 125.981C40.8409 124.442 43.4272 122.324 46.5527 119.822C52.802 114.819 61.1898 108.294 69.5979 101.816C78.0053 95.3384 86.4308 88.9099 92.7545 84.1007C95.9164 81.6961 98.5527 79.6964 100.399 78.2978C101.321 77.5985 102.047 77.0495 102.541 76.6754L103.106 76.2484L103.251 76.1389L103.287 76.1113L103.296 76.1043L103.299 76.1026C103.299 76.1022 103.3 76.102 102.999 75.7041L103.3 76.102L103.3 76.1015C107.468 72.9423 110.563 71.4669 113.611 71.4785C116.662 71.4902 119.782 72.9921 124.001 76.1054L124.009 76.112L124.046 76.1395L124.191 76.2485L124.756 76.6737C125.251 77.0462 125.977 77.5929 126.9 78.2892C128.748 79.6818 131.386 81.673 134.55 84.0676C140.879 88.8566 149.31 95.2584 157.723 101.71C166.136 108.162 174.529 114.661 180.78 119.647C183.906 122.14 186.493 124.251 188.278 125.787C189.172 126.556 189.857 127.174 190.307 127.621C190.533 127.846 190.688 128.016 190.779 128.133Z" fill="url(#paint1_linear_1752_567)"/>
<path d="M190.779 128.133C190.793 128.151 190.805 128.167 190.814 128.181V128.201C190.813 128.21 190.812 128.218 190.811 128.226C190.807 128.267 190.808 128.303 190.809 128.327C190.809 128.348 190.811 128.37 190.813 128.389C190.814 128.403 190.815 128.415 190.816 128.426C188.75 133.742 183.623 137.522 177.581 137.522H49.8647C49.6624 137.522 49.4604 137.498 49.237 137.466C49.1868 137.458 49.1344 137.45 49.0803 137.442C48.9048 137.415 48.7121 137.386 48.5206 137.367C48.5047 137.366 48.4888 137.365 48.4729 137.365H48.3568C48.3478 137.362 48.3376 137.359 48.3269 137.356C48.2978 137.347 48.2586 137.337 48.2119 137.332L48.2104 137.332C45.235 136.981 42.5613 135.755 40.4417 133.865L40.4408 133.864C40.4256 133.85 40.4107 133.838 40.3966 133.828C40.3779 133.803 40.3567 133.779 40.3333 133.758C40.2359 133.669 40.1398 133.583 40.0452 133.498C39.6169 133.113 39.2203 132.756 38.8781 132.341L38.878 132.341C37.8879 131.141 37.1017 129.787 36.5505 128.332C36.6419 128.215 36.7975 128.045 37.0246 127.82C37.4754 127.372 38.1612 126.752 39.0553 125.981C40.8409 124.442 43.4272 122.324 46.5527 119.822C52.802 114.819 61.1898 108.294 69.5979 101.816C78.0053 95.3384 86.4308 88.9099 92.7545 84.1007C95.9164 81.6961 98.5527 79.6964 100.399 78.2978C101.321 77.5985 102.047 77.0495 102.541 76.6754L103.106 76.2484L103.251 76.1389L103.287 76.1113L103.296 76.1043L103.299 76.1026C103.299 76.1022 103.3 76.102 102.999 75.7041L103.3 76.102L103.3 76.1015C107.468 72.9423 110.563 71.4669 113.611 71.4785C116.662 71.4902 119.782 72.9921 124.001 76.1054L124.009 76.112L124.046 76.1395L124.191 76.2485L124.756 76.6737C125.251 77.0462 125.977 77.5929 126.9 78.2892C128.748 79.6818 131.386 81.673 134.55 84.0676C140.879 88.8566 149.31 95.2584 157.723 101.71C166.136 108.162 174.529 114.661 180.78 119.647C183.906 122.14 186.493 124.251 188.278 125.787C189.172 126.556 189.857 127.174 190.307 127.621C190.533 127.846 190.688 128.016 190.779 128.133Z" stroke="#DBDBDB" stroke-linejoin="round"/>
<path d="M103.632 91.8056L37.8522 40.1391C37.883 40.0567 37.9195 39.9606 37.9617 39.853C38.1125 39.4677 38.3335 38.9361 38.6139 38.3523C39.1827 37.168 39.9659 35.8326 40.8646 35.0343L40.8647 35.0342C42.7257 33.3805 46.3081 31.834 49.3454 31.5046L178.142 31.5C178.596 31.5483 179.026 31.5827 179.44 31.6158C180.51 31.7014 181.471 31.7782 182.45 32.0642C183.766 32.4489 185.098 33.2189 186.581 34.9823C188.094 36.7813 188.894 38.1757 189.314 39.1046C189.524 39.5691 189.639 39.9179 189.701 40.1435C189.705 40.1597 189.709 40.1752 189.713 40.1901L123.998 91.805C123.997 91.8059 123.996 91.8068 123.994 91.8077C119.893 94.9161 116.848 96.3666 113.851 96.3551C110.851 96.3437 107.782 94.8676 103.632 91.8056Z" fill="white"/>
<path d="M103.632 91.8056L37.8522 40.1391C37.883 40.0567 37.9195 39.9606 37.9617 39.853C38.1125 39.4677 38.3335 38.9361 38.6139 38.3523C39.1827 37.168 39.9659 35.8326 40.8646 35.0343L40.8647 35.0342C42.7257 33.3805 46.3081 31.834 49.3454 31.5046L178.142 31.5C178.596 31.5483 179.026 31.5827 179.44 31.6158C180.51 31.7014 181.471 31.7782 182.45 32.0642C183.766 32.4489 185.098 33.2189 186.581 34.9823C188.094 36.7813 188.894 38.1757 189.314 39.1046C189.524 39.5691 189.639 39.9179 189.701 40.1435C189.705 40.1597 189.709 40.1752 189.713 40.1901L123.998 91.805C123.997 91.8059 123.996 91.8068 123.994 91.8077C119.893 94.9161 116.848 96.3666 113.851 96.3551C110.851 96.3437 107.782 94.8676 103.632 91.8056Z" fill="url(#paint2_linear_1752_567)"/>
<path d="M103.632 91.8056L37.8522 40.1391C37.883 40.0567 37.9195 39.9606 37.9617 39.853C38.1125 39.4677 38.3335 38.9361 38.6139 38.3523C39.1827 37.168 39.9659 35.8326 40.8646 35.0343L40.8647 35.0342C42.7257 33.3805 46.3081 31.834 49.3454 31.5046L178.142 31.5C178.596 31.5483 179.026 31.5827 179.44 31.6158C180.51 31.7014 181.471 31.7782 182.45 32.0642C183.766 32.4489 185.098 33.2189 186.581 34.9823C188.094 36.7813 188.894 38.1757 189.314 39.1046C189.524 39.5691 189.639 39.9179 189.701 40.1435C189.705 40.1597 189.709 40.1752 189.713 40.1901L123.998 91.805C123.997 91.8059 123.996 91.8068 123.994 91.8077C119.893 94.9161 116.848 96.3666 113.851 96.3551C110.851 96.3437 107.782 94.8676 103.632 91.8056Z" stroke="#DBDBDB" stroke-linejoin="round"/>
</g>
</g>
<defs>
<filter id="filter0_d_1752_567" x="-4" y="-5" width="235.322" height="187.022" filterUnits="userSpaceOnUse" color-interpolation-filters="sRGB">
<feFlood flood-opacity="0" result="BackgroundImageFix"/>
<feColorMatrix in="SourceAlpha" type="matrix" values="0 0 0 0 0 0 0 0 0 0 0 0 0 0 0 0 0 0 127 0" result="hardAlpha"/>
<feOffset dy="4"/>
<feGaussianBlur stdDeviation="20"/>
<feColorMatrix type="matrix" values="0 0 0 0 0.471891 0 0 0 0 0.826326 0 0 0 0 1 0 0 0 0.5 0"/>
<feBlend mode="normal" in2="BackgroundImageFix" result="effect1_dropShadow_1752_567"/>
<feBlend mode="normal" in="SourceGraphic" in2="effect1_dropShadow_1752_567" result="shape"/>
</filter>
<linearGradient id="paint0_linear_1752_567" x1="113.741" y1="31.1485" x2="113.741" y2="127.879" gradientUnits="userSpaceOnUse">
<stop offset="0.054649" stop-color="white" stop-opacity="0.21"/>
<stop offset="1" stop-color="#B6E4FA" stop-opacity="0.55"/>
</linearGradient>
<linearGradient id="paint1_linear_1752_567" x1="113.701" y1="105" x2="113.701" y2="138.022" gradientUnits="userSpaceOnUse">
<stop offset="0.054649" stop-color="white" stop-opacity="0.21"/>
<stop offset="1" stop-color="#B6E4FA" stop-opacity="0.55"/>
</linearGradient>
<linearGradient id="paint2_linear_1752_567" x1="113.763" y1="59.5" x2="113.763" y2="21" gradientUnits="userSpaceOnUse">
<stop offset="0.054649" stop-color="white" stop-opacity="0.21"/>
<stop offset="1" stop-color="#B6E4FA" stop-opacity="0.55"/>
</linearGradient>
<clipPath id="clip0_1752_567">
<rect width="228" height="172" fill="white"/>
</clipPath>
</defs>
</svg>
