<svg width="16" height="12" viewBox="0 0 16 12" fill="none" xmlns="http://www.w3.org/2000/svg">
<path fill-rule="evenodd" clip-rule="evenodd" d="M10.8182 9.62388L10.8182 11.4545H16V9.62335H15.7273C16 9.62335 16 9.62263 16 9.62241L16 9.62119L16 9.61787L15.9998 9.60787C15.9996 9.59972 15.9992 9.58865 15.9985 9.57484C15.9972 9.54723 15.9945 9.50864 15.9894 9.46061C15.9792 9.36464 15.9591 9.23045 15.9195 9.07071C15.8404 8.75157 15.6824 8.32684 15.3666 7.90215C14.7253 7.03991 13.4765 6.23374 11.0909 6.23374C11.0143 6.23374 10.9392 6.23476 10.8655 6.23671C10.4321 6.24814 10.0486 6.29148 9.69683 6.34606L9.15303 6.43042L9.5495 6.81205C9.71454 6.97091 9.8642 7.12999 9.98229 7.29109L9.98464 7.29421C10.0585 7.39198 10.1258 7.49089 10.1872 7.59C10.5019 8.09781 10.6604 8.6098 10.7398 8.99628C10.7794 9.18904 10.799 9.34905 10.8087 9.45953C10.8136 9.51473 10.816 9.5574 10.8171 9.58545C10.8174 9.59367 10.8177 9.60063 10.8178 9.60627C10.8179 9.61025 10.818 9.61357 10.8181 9.61622L10.8182 9.62284L10.8182 9.62388ZM15.7271 11.1818H15.7273V9.62335C15.7273 9.62335 15.7273 6.50647 11.0909 6.50647C11.0167 6.50647 10.944 6.50746 10.8727 6.50934C10.588 6.51685 10.3252 6.53859 10.0783 6.56847C9.96175 6.58257 9.84874 6.59848 9.73864 6.61556C9.73864 6.61556 9.73864 6.61556 9.73864 6.61556C10.082 6.56231 10.4535 6.52043 10.8725 6.50938C10.9438 6.50749 11.0165 6.5065 11.0907 6.5065C15.7271 6.5065 15.7271 9.62339 15.7271 9.62339V11.1818ZM11.0909 9.62339H11.9998V10.2727H14.818V10.2727H12V9.62335H11.337C11.2635 9.62337 11.1817 9.62339 11.0909 9.62339ZM11.9998 9.6221C12 9.62209 12 9.62209 12 9.62209L12 9.6207L12 9.61756L11.9999 9.60978L11.9996 9.58842C11.9992 9.57164 11.9985 9.54982 11.9973 9.52332C11.9953 9.47864 11.9918 9.42047 11.9855 9.35062L11.9854 9.34955L11.9818 9.31064C11.9646 9.13543 11.9311 8.89407 11.8652 8.61136C11.8026 8.34313 11.7095 8.03175 11.5703 7.70151C11.5316 7.60976 11.4894 7.51655 11.4432 7.4224C11.4432 7.4224 11.4431 7.4224 11.443 7.42239C11.6552 7.85541 11.785 8.26863 11.865 8.61139C11.9309 8.89411 11.9645 9.13547 11.9816 9.31067C11.9902 9.39851 11.9947 9.4704 11.9971 9.52336C11.9983 9.54986 11.999 9.57168 11.9994 9.58846L11.9997 9.60982L11.9998 9.61759L11.9998 9.62074L11.9998 9.6221ZM14.5455 9.99997H12.2727V9.35062H12.2593C12.2575 9.32948 12.2555 9.30728 12.2532 9.28407C12.2351 9.09885 12.1998 8.8455 12.1308 8.54942C12.0735 8.3039 11.9917 8.02352 11.8744 7.72522C13.3234 7.86999 13.9303 8.40831 14.1994 8.7702C14.3762 9.00783 14.4642 9.24527 14.5077 9.42072C14.5293 9.50774 14.5389 9.57558 14.543 9.61428C14.5443 9.62681 14.5451 9.63613 14.5455 9.64167V9.99997ZM0 9.62335V11.4545H9.81818V9.62335C9.81818 9.62357 9.81818 9.62335 9.54546 9.62335H9.81818L9.81818 9.62241L9.81818 9.62119L9.81815 9.61787L9.81796 9.60787C9.81777 9.59972 9.8174 9.58865 9.81672 9.57484C9.81535 9.54723 9.8127 9.50864 9.8076 9.46061C9.79741 9.36464 9.77733 9.23045 9.73773 9.07071C9.65861 8.75157 9.50061 8.32684 9.18475 7.90215C8.54346 7.03991 7.29468 6.23374 4.90909 6.23374C2.52351 6.23374 1.27473 7.03991 0.633436 7.90215C0.317575 8.32684 0.159578 8.75157 0.0804569 9.07071C0.0408554 9.23045 0.0207781 9.36464 0.0105819 9.46061C0.00547891 9.50864 0.00283537 9.54723 0.00146657 9.57484C0.000781905 9.58865 0.000415363 9.59972 0.000219941 9.60787L3.6684e-05 9.61787L6.88163e-06 9.62119L0 9.62241C0 9.62263 5.93474e-09 9.62335 0.27254 9.62335H0ZM3.40471 6.63546C3.84221 6.55329 4.34082 6.50647 4.90909 6.50647C9.54546 6.50647 9.54546 9.62335 9.54546 9.62335V11.1818H9.54527V9.62339C9.54527 9.62339 9.54527 6.5065 4.9089 6.5065C4.34072 6.5065 3.84216 6.55331 3.40471 6.63546ZM1.22755 9.35509C1.27773 9.15268 1.37892 8.88013 1.58173 8.60744C1.86238 8.23009 2.41734 7.74734 3.56292 7.5303C2.41721 7.74733 1.86221 8.2301 1.58154 8.60748C1.37873 8.88016 1.27754 9.15271 1.22736 9.35513C1.2024 9.45579 1.19085 9.53607 1.1856 9.58551C1.18299 9.61007 1.18199 9.6265 1.18164 9.6334L1.18163 10.2727H8.63618V10.2727H1.18182L1.18183 9.63337C1.18218 9.62646 1.18318 9.61004 1.18579 9.58547C1.19104 9.53603 1.20259 9.45575 1.22755 9.35509ZM8.32592 9.42072C8.3475 9.50774 8.35708 9.57558 8.3612 9.61428C8.36252 9.62677 8.36325 9.63593 8.36362 9.64137L8.36363 9.99997H1.45455L1.45456 9.64138C1.45493 9.63593 1.45566 9.62678 1.45699 9.61429C1.4611 9.57559 1.47069 9.50775 1.49226 9.42072C1.53576 9.24527 1.62383 9.00783 1.80056 8.7702C2.11275 8.35046 2.88339 7.68829 4.90909 7.68829C6.93479 7.68829 7.70543 8.35046 8.01762 8.7702C8.19436 9.00783 8.28242 9.24527 8.32592 9.42072ZM3.77273 2.61036C3.77273 1.96063 4.28795 1.45452 4.90909 1.45452C5.53023 1.45452 6.04545 1.96063 6.04545 2.61036C6.04545 3.26009 5.53023 3.76621 4.90909 3.76621C4.28795 3.76621 3.77273 3.26009 3.77273 2.61036ZM9.95455 2.61036C9.95455 1.96063 10.4698 1.45452 11.0909 1.45452C11.712 1.45452 12.2273 1.96063 12.2273 2.61036C12.2273 3.26009 11.712 3.76621 11.0909 3.76621C10.4698 3.76621 9.95455 3.26009 9.95455 2.61036ZM4.90909 -2.67029e-05C3.47359 -2.67029e-05 2.31818 1.16839 2.31818 2.61036C2.31818 4.05234 3.47359 5.22075 4.90909 5.22075C6.34459 5.22075 7.5 4.05234 7.5 2.61036C7.5 1.16839 6.34459 -2.67029e-05 4.90909 -2.67029e-05ZM11.0909 -2.67029e-05C9.65541 -2.67029e-05 8.5 1.16839 8.5 2.61036C8.5 4.05234 9.65541 5.22075 11.0909 5.22075C12.5264 5.22075 13.6818 4.05234 13.6818 2.61036C13.6818 1.16839 12.5264 -2.67029e-05 11.0909 -2.67029e-05ZM4.62647 1.21042C3.98663 1.34192 3.5 1.91157 3.5 2.61036C3.5 3.40898 4.1356 4.03893 4.90909 4.03893C4.99819 4.03893 5.08546 4.03058 5.17014 4.01456C5.0854 4.0306 4.99807 4.03897 4.9089 4.03897C4.13541 4.03897 3.49981 3.40902 3.49981 2.6104C3.49981 1.91154 3.98654 1.34184 4.62647 1.21042ZM10.8083 1.21042C10.1684 1.34192 9.68182 1.91157 9.68182 2.61036C9.68182 3.40898 10.3174 4.03893 11.0909 4.03893C11.18 4.03893 11.2673 4.03058 11.352 4.01456C11.2672 4.0306 11.1799 4.03897 11.0907 4.03897C10.3172 4.03897 9.68163 3.40902 9.68163 2.6104C9.68163 1.91154 10.1684 1.34184 10.8083 1.21042ZM4.519 0.305481C4.64579 0.283923 4.77611 0.272701 4.90909 0.272701C6.19182 0.272701 7.22727 1.31686 7.22727 2.61036C7.22727 3.75611 6.41487 4.70622 5.33782 4.90834C6.41478 4.70614 7.22708 3.75608 7.22708 2.6104C7.22708 1.31689 6.19163 0.272736 4.9089 0.272736C4.77599 0.272736 4.64573 0.283944 4.519 0.305481ZM10.7455 0.298336C10.8582 0.281449 10.9735 0.272701 11.0909 0.272701C12.3736 0.272701 13.4091 1.31686 13.4091 2.61036C13.4091 3.75611 12.5967 4.70622 11.5196 4.90834C12.5966 4.70614 13.4089 3.75608 13.4089 2.6104C13.4089 1.31689 12.3734 0.272736 11.0907 0.272736C10.9734 0.272736 10.8581 0.281468 10.7455 0.298336Z" fill="#AFAFAF"/>
</svg>
