<svg width="14" height="16" viewBox="0 0 14 16" fill="none" xmlns="http://www.w3.org/2000/svg">
<path d="M7 4.36364C7.41256 4.36364 7.80822 4.21039 8.09994 3.93761C8.39167 3.66483 8.55556 3.29486 8.55556 2.90909C8.55556 2.63273 8.47778 2.37818 8.33 2.16L7 0L5.67 2.16C5.52222 2.37818 5.44444 2.63273 5.44444 2.90909C5.44444 3.70909 6.14444 4.36364 7 4.36364ZM11.6667 6.54545H7.77778V5.09091H6.22222V6.54545H2.33333C1.04222 6.54545 0 7.52 0 8.72727V15.2727C0 15.6727 0.35 16 0.777778 16H13.2222C13.65 16 14 15.6727 14 15.2727V8.72727C14 7.52 12.9578 6.54545 11.6667 6.54545ZM12.4444 14.5455H1.55556V12.3636C2.25556 12.3636 2.92444 12.0945 3.42222 11.6364L4.27778 10.8509L5.10222 11.6364C6.12111 12.5818 7.89444 12.5745 8.90556 11.6364L9.74556 10.8509L10.5778 11.6364C11.0756 12.0945 11.7444 12.3636 12.4444 12.3636V14.5455ZM12.4444 11.2727C12.0556 11.2727 11.6667 11.1273 11.3944 10.8582L9.72222 9.30909L8.07333 10.8582C7.49778 11.3964 6.49444 11.3964 5.91889 10.8582L4.27778 9.30909L2.59778 10.8582C2.33333 11.12 1.94444 11.2727 1.55556 11.2727V8.72727C1.55556 8.32727 1.90556 8 2.33333 8H11.6667C12.0944 8 12.4444 8.32727 12.4444 8.72727V11.2727Z" fill="#AFAFAF"/>
</svg>
