<svg width="18" height="16" viewBox="0 0 18 16" fill="none" xmlns="http://www.w3.org/2000/svg">
<path fill-rule="evenodd" clip-rule="evenodd" d="M5.07857 1.67143C3.16241 1.67143 1.67143 3.15643 1.67143 5.07472C1.67143 6.25254 2.19567 7.39034 3.29058 8.72866C4.39464 10.0782 5.98966 11.5273 7.99253 13.3419L7.99374 13.343L8.55 13.8489L9.10747 13.3419C11.1103 11.5273 12.7054 10.0782 13.8094 8.72866C14.9043 7.39034 15.4286 6.25254 15.4286 5.07472C15.4286 3.15643 13.9376 1.67143 12.0214 1.67143C10.9315 1.67143 9.87178 2.18268 9.18392 2.9834C9.02516 3.16822 8.79364 3.27454 8.55 3.27454C8.30635 3.27454 8.07484 3.16822 7.91608 2.9834C7.22822 2.18268 6.1685 1.67143 5.07857 1.67143ZM0 5.07472C0 2.22991 2.24273 0 5.07857 0C6.36399 0 7.59886 0.479096 8.55 1.27087C9.50114 0.479096 10.736 0 12.0214 0C14.8573 0 17.1 2.22991 17.1 5.07472C17.1 6.80254 16.3128 8.30834 15.1031 9.78702C13.907 11.249 12.2125 12.7842 10.2519 14.5604L10.2297 14.5805L9.11231 15.5968C8.7935 15.8868 8.3065 15.8868 7.98769 15.5968L6.87032 14.5805L6.84807 14.5604C4.88752 12.7842 3.19298 11.249 1.99692 9.78702C0.787184 8.30834 0 6.80254 0 5.07472Z" fill="#AFAFAF"/>
</svg>
