<svg width="12" height="16" viewBox="0 0 12 16" fill="none" xmlns="http://www.w3.org/2000/svg">
<path d="M8.92089 1.52381H6.16296V0H11.5556V5.33333H10.0148V2.5981L7.0643 5.51619C7.41246 6.03614 7.62623 6.63266 7.68685 7.2534C7.74747 7.87414 7.65308 8.50011 7.41196 9.07634C7.17084 9.65257 6.79038 10.1615 6.30396 10.5583C5.81755 10.9551 5.24007 11.2278 4.62222 11.3524V12.9524H6.16296V14.4762H4.62222V16H3.08148V14.4762H1.54074V12.9524H3.08148V11.3524C2.21145 11.1767 1.4295 10.7092 0.867972 10.0289C0.30644 9.34856 -0.000181153 8.49726 8.02944e-08 7.61905C8.02944e-08 6.6087 0.405819 5.63973 1.12818 4.92531C1.85054 4.21088 2.83028 3.80952 3.85185 3.80952C4.62222 3.80952 5.36178 4.0381 5.97037 4.4419L8.92089 1.52381ZM3.85185 5.33333C3.23891 5.33333 2.65107 5.57415 2.21765 6.0028C1.78423 6.43146 1.54074 7.01284 1.54074 7.61905C1.54074 8.22526 1.78423 8.80664 2.21765 9.23529C2.65107 9.66395 3.23891 9.90476 3.85185 9.90476C4.4648 9.90476 5.05264 9.66395 5.48605 9.23529C5.91947 8.80664 6.16296 8.22526 6.16296 7.61905C6.16296 7.01284 5.91947 6.43146 5.48605 6.0028C5.05264 5.57415 4.4648 5.33333 3.85185 5.33333Z" fill="#AFAFAF"/>
</svg>
