<svg width="18" height="14" viewBox="0 0 18 14" fill="none" xmlns="http://www.w3.org/2000/svg">
<path d="M7.34927 9.45125C7.67568 9.96034 8.2579 10.3 8.92151 10.3C9.58513 10.3 10.1673 9.96121 10.4938 9.45212C10.7761 9.01167 10.5369 8.42874 10.032 8.2576L9.8725 8.20373C9.2554 7.99437 8.58264 7.99437 7.96554 8.2046L7.81106 8.2576C7.30608 8.42874 7.06688 9.0108 7.34927 9.45125Z" fill="#AFAFAF"/>
<path d="M2.11427 9.17238C2.55945 9.15935 2.9415 9.07422 3.25794 8.96389C3.34017 10.2713 3.57273 11.5988 4.54531 12.5848C5.47304 13.5257 6.88831 14 8.76205 14C9.125 14 9.50539 13.9818 9.9024 13.9461C11.5095 13.8011 12.7047 13.3432 13.453 12.5848C14.4248 11.5997 14.6573 10.2713 14.7404 8.96389C15.056 9.07422 15.4389 9.15848 15.8832 9.17152C17.0834 9.20713 17.938 8.14292 17.9962 7.02919C18.012 6.72426 17.9779 6.42281 17.9123 6.12743C17.7985 5.63399 17.59 5.15444 17.3475 4.70443C17.2636 4.54892 17.1822 4.38994 17.1025 4.23183C16.5344 3.1181 15.9754 1.83844 14.9115 1.09045C14.0054 0.451052 13.0187 0.571808 12.11 0.987937C12.0228 0.921912 11.9339 0.857625 11.8426 0.797681C11.1632 0.352015 10.3152 0.0809667 9.39161 0.0149421C8.50457 -0.0484763 7.61255 0.0913917 6.87751 0.407615C6.52702 0.558776 6.19479 0.754244 5.88915 0.987937C4.98052 0.572676 3.99465 0.451921 3.08851 1.09132C2.02457 1.84018 1.4656 3.11897 0.897503 4.2327C0.817769 4.39081 0.736375 4.54979 0.652489 4.7053C0.409966 5.15444 0.201496 5.63485 0.0877096 6.1283C0.0220957 6.42367 -0.0119568 6.72513 0.0038238 7.03006C0.0586406 8.14379 0.914114 9.208 2.11427 9.17238ZM7.34428 1.5978C7.81604 1.39451 8.38165 1.28678 8.96553 1.28678C9.07849 1.28678 9.19227 1.29113 9.30606 1.29895C10.0178 1.3502 10.6864 1.5587 11.1873 1.88796C11.5511 2.12599 11.8716 2.43527 12.1391 2.80535C12.5128 3.32399 12.8135 3.97468 13.0577 4.79738C13.4356 6.06575 13.5917 7.3819 13.5211 8.70934L13.5203 8.73627C13.4497 10.0003 13.2645 10.9811 12.5959 11.6596C12.0635 12.1991 11.0959 12.5457 9.79692 12.663C7.72136 12.8498 6.24297 12.5118 5.40244 11.6596C4.72803 10.9759 4.54448 9.9864 4.47637 8.70934C4.4066 7.3819 4.56192 6.06575 4.94065 4.79651C5.18401 3.97468 5.48467 3.32312 5.85842 2.80535C6.24629 2.26673 6.7604 1.84973 7.34428 1.5978Z" fill="#AFAFAF"/>
<path d="M10.8592 5.47153C10.919 5.47153 10.9639 5.39942 10.9896 5.34991C11.0835 5.17094 11.0984 4.93986 11.0436 4.74352C10.9946 4.56803 10.8874 4.42643 10.7363 4.34998C10.7022 4.33261 10.6524 4.36127 10.6275 4.38386C10.5918 4.41687 10.5619 4.47334 10.5502 4.52286C10.5295 4.50027 10.5004 4.4855 10.4713 4.49072C10.3725 4.50809 10.3235 4.62972 10.311 4.72702C10.2886 4.90858 10.336 5.10839 10.4448 5.24826C10.5527 5.38639 10.6923 5.47066 10.8592 5.47153ZM10.6167 4.77567L10.6134 4.77393C10.6499 4.79565 10.6815 4.82345 10.7105 4.85559C10.7313 4.88513 10.7496 4.91553 10.7662 4.94855C10.767 4.95115 10.7687 4.95463 10.7695 4.95723C10.7737 4.96766 10.777 4.97895 10.7795 4.99024C10.7803 4.99372 10.7811 4.99719 10.782 5.00154C10.7778 4.9998 10.7737 4.99806 10.7695 4.99633C10.7313 4.972 10.6964 4.9416 10.6649 4.90598C10.6507 4.88686 10.6366 4.86688 10.6242 4.84516C10.6183 4.83561 10.6142 4.82431 10.6092 4.81476C10.6067 4.80781 10.6042 4.79999 10.6017 4.79304C10.5984 4.78261 10.5959 4.77219 10.5934 4.76177C10.6009 4.76698 10.6092 4.77132 10.6167 4.77567Z" fill="#AFAFAF"/>
<path d="M7.62833 5.47153C7.68814 5.47153 7.73298 5.39942 7.75873 5.34991C7.85258 5.17094 7.86754 4.93986 7.81272 4.74352C7.76372 4.56803 7.65657 4.42643 7.50541 4.34998C7.47136 4.33261 7.42153 4.36127 7.39661 4.38386C7.3609 4.41687 7.331 4.47334 7.31937 4.52286C7.2986 4.50027 7.26954 4.4855 7.24047 4.49072C7.14163 4.50809 7.09263 4.62972 7.08017 4.72702C7.05774 4.90858 7.10508 5.10839 7.21389 5.24826C7.32103 5.38639 7.46139 5.47066 7.62833 5.47153ZM7.38581 4.77567L7.38249 4.77393C7.41904 4.79565 7.4506 4.82345 7.47967 4.85559C7.50043 4.88513 7.5187 4.91553 7.53531 4.94855C7.53614 4.95115 7.53698 4.95463 7.53864 4.95723C7.54279 4.96766 7.54611 4.97895 7.5486 4.99024C7.54943 4.99372 7.55026 4.99719 7.55109 5.00154C7.54694 4.9998 7.54279 4.99806 7.53864 4.99633C7.50043 4.972 7.46555 4.9416 7.43399 4.90598C7.41987 4.88686 7.40575 4.86688 7.39329 4.84516C7.38748 4.83561 7.38332 4.82431 7.37834 4.81476C7.37585 4.80781 7.37335 4.79999 7.37086 4.79304C7.36754 4.78261 7.36505 4.77219 7.36256 4.76177C7.37003 4.76698 7.37751 4.77132 7.38581 4.77567Z" fill="#AFAFAF"/>
<path d="M7.68382 4.9513C7.68382 5.11215 7.55924 5.24255 7.40556 5.24255C7.25187 5.24255 7.12729 5.11215 7.12729 4.9513C7.12729 4.79044 7.25187 4.66004 7.40556 4.66004C7.55924 4.66004 7.68382 4.79044 7.68382 4.9513Z" fill="#AFAFAF"/>
<path d="M11.023 4.9513C11.023 5.11215 10.8985 5.24255 10.7448 5.24255C10.5911 5.24255 10.4665 5.11215 10.4665 4.9513C10.4665 4.79044 10.5911 4.66004 10.7448 4.66004C10.8985 4.66004 11.023 4.79044 11.023 4.9513Z" fill="#AFAFAF"/>
</svg>
